<!-- Save the following content as google-icon.svg in your assets directory -->
<svg width="48" height="48" viewBox="0 0 48 48" xmlns="http://www.w3.org/2000/svg">
  <path fill="#4285F4" d="M24 9.5c3.4 0 5.8 1.4 7.1 2.5l5.2-5.2C32.8 4.5 28.8 3 24 3 14.8 3 7.1 8.8 4.4 16.7l6.9 5.3C12.9 16 18.1 9.5 24 9.5z"/>
  <path fill="#34A853" d="M24 44c5.6 0 10.3-1.9 13.7-5.3l-6.4-5.3c-1.7 1.3-4.2 2.2-7.3 2.2-5.6 0-10.4-3.8-12.1-9.1l-7 5.4C9.1 39.6 16.1 44 24 44z"/>
  <path fill="#FBBC05" d="M45.5 24.5c0-1.6-.1-2.7-.3-3.9H24v7.4h12.2c-.6 3.3-2.2 6-4.7 7.9l6.4 5.3C41.6 37.5 45.5 31.7 45.5 24.5z"/>
  <path fill="#EA4335" d="M11.3 28.7c-.5-1.3-.8-2.7-.8-4.2s.3-2.9.8-4.2l-6.9-5.3C2.8 17 2 20.4 2 24s.8 7 2.4 10.3l6.9-5.3z"/>
</svg>
